<svg width="82" height="33" viewBox="0 0 82 33" fill="none" xmlns="http://www.w3.org/2000/svg">
<path d="M40.9999 33L34.9999 27H46.9999L40.9999 33Z" fill="#1361FE"/>
<rect width="82" height="27" rx="8" fill="#1361FE"/>
<path d="M15.75 18H13.0568V9.27273H15.8693C16.7159 9.27273 17.4403 9.44744 18.0426 9.79688C18.6449 10.1435 19.1065 10.642 19.4276 11.2926C19.7486 11.9403 19.9091 12.7159 19.9091 13.6193C19.9091 14.5284 19.7472 15.3111 19.4233 15.9673C19.0994 16.6207 18.6278 17.1236 18.0085 17.4759C17.3892 17.8253 16.6364 18 15.75 18ZM14.1136 17.0625H15.6818C16.4034 17.0625 17.0014 16.9233 17.4759 16.6449C17.9503 16.3665 18.304 15.9702 18.5369 15.456C18.7699 14.9418 18.8864 14.3295 18.8864 13.6193C18.8864 12.9148 18.7713 12.3082 18.5412 11.7997C18.3111 11.2884 17.9673 10.8963 17.5099 10.6236C17.0526 10.348 16.483 10.2102 15.8011 10.2102H14.1136V17.0625ZM24.2045 18.1364C23.6136 18.1364 23.0952 17.9957 22.6491 17.7145C22.206 17.4332 21.8594 17.0398 21.6094 16.5341C21.3622 16.0284 21.2386 15.4375 21.2386 14.7614C21.2386 14.0795 21.3622 13.4844 21.6094 12.9759C21.8594 12.4673 22.206 12.0724 22.6491 11.7912C23.0952 11.5099 23.6136 11.3693 24.2045 11.3693C24.7955 11.3693 25.3125 11.5099 25.7557 11.7912C26.2017 12.0724 26.5483 12.4673 26.7955 12.9759C27.0455 13.4844 27.1705 14.0795 27.1705 14.7614C27.1705 15.4375 27.0455 16.0284 26.7955 16.5341C26.5483 17.0398 26.2017 17.4332 25.7557 17.7145C25.3125 17.9957 24.7955 18.1364 24.2045 18.1364ZM24.2045 17.233C24.6534 17.233 25.0227 17.1179 25.3125 16.8878C25.6023 16.6577 25.8168 16.3551 25.956 15.9801C26.0952 15.6051 26.1648 15.1989 26.1648 14.7614C26.1648 14.3239 26.0952 13.9162 25.956 13.5384C25.8168 13.1605 25.6023 12.8551 25.3125 12.6222C25.0227 12.3892 24.6534 12.2727 24.2045 12.2727C23.7557 12.2727 23.3864 12.3892 23.0966 12.6222C22.8068 12.8551 22.5923 13.1605 22.4531 13.5384C22.3139 13.9162 22.2443 14.3239 22.2443 14.7614C22.2443 15.1989 22.3139 15.6051 22.4531 15.9801C22.5923 16.3551 22.8068 16.6577 23.0966 16.8878C23.3864 17.1179 23.7557 17.233 24.2045 17.233ZM29.9659 18L27.9716 11.4545H29.0284L30.4432 16.4659H30.5114L31.9091 11.4545H32.983L34.3636 16.4489H34.4318L35.8466 11.4545H36.9034L34.9091 18H33.9205L32.4886 12.9716H32.3864L30.9545 18H29.9659ZM39.2386 14.0625V18H38.233V11.4545H39.2045V12.4773H39.2898C39.4432 12.1449 39.6761 11.8778 39.9886 11.6761C40.3011 11.4716 40.7045 11.3693 41.1989 11.3693C41.642 11.3693 42.0298 11.4602 42.3622 11.642C42.6946 11.821 42.9531 12.0938 43.1378 12.4602C43.3224 12.8239 43.4148 13.2841 43.4148 13.8409V18H42.4091V13.9091C42.4091 13.3949 42.2756 12.9943 42.0085 12.7074C41.7415 12.4176 41.375 12.2727 40.9091 12.2727C40.5881 12.2727 40.3011 12.3423 40.0483 12.4815C39.7983 12.6207 39.6009 12.8239 39.456 13.0909C39.3111 13.358 39.2386 13.6818 39.2386 14.0625ZM46.2582 9.27273V18H45.2525V9.27273H46.2582ZM50.7592 18.1364C50.1683 18.1364 49.6499 17.9957 49.2038 17.7145C48.7607 17.4332 48.4141 17.0398 48.1641 16.5341C47.9169 16.0284 47.7933 15.4375 47.7933 14.7614C47.7933 14.0795 47.9169 13.4844 48.1641 12.9759C48.4141 12.4673 48.7607 12.0724 49.2038 11.7912C49.6499 11.5099 50.1683 11.3693 50.7592 11.3693C51.3501 11.3693 51.8672 11.5099 52.3104 11.7912C52.7564 12.0724 53.103 12.4673 53.3501 12.9759C53.6001 13.4844 53.7251 14.0795 53.7251 14.7614C53.7251 15.4375 53.6001 16.0284 53.3501 16.5341C53.103 17.0398 52.7564 17.4332 52.3104 17.7145C51.8672 17.9957 51.3501 18.1364 50.7592 18.1364ZM50.7592 17.233C51.2081 17.233 51.5774 17.1179 51.8672 16.8878C52.157 16.6577 52.3714 16.3551 52.5107 15.9801C52.6499 15.6051 52.7195 15.1989 52.7195 14.7614C52.7195 14.3239 52.6499 13.9162 52.5107 13.5384C52.3714 13.1605 52.157 12.8551 51.8672 12.6222C51.5774 12.3892 51.2081 12.2727 50.7592 12.2727C50.3104 12.2727 49.9411 12.3892 49.6513 12.6222C49.3615 12.8551 49.147 13.1605 49.0078 13.5384C48.8686 13.9162 48.799 14.3239 48.799 14.7614C48.799 15.1989 48.8686 15.6051 49.0078 15.9801C49.147 16.3551 49.3615 16.6577 49.6513 16.8878C49.9411 17.1179 50.3104 17.233 50.7592 17.233ZM57.1864 18.1534C56.7717 18.1534 56.3952 18.0753 56.0572 17.919C55.7191 17.7599 55.4506 17.5312 55.2518 17.233C55.0529 16.9318 54.9535 16.5682 54.9535 16.142C54.9535 15.767 55.0273 15.4631 55.1751 15.2301C55.3228 14.9943 55.5202 14.8097 55.7674 14.6761C56.0146 14.5426 56.2873 14.4432 56.5856 14.3778C56.8867 14.3097 57.1893 14.2557 57.4933 14.2159C57.891 14.1648 58.2134 14.1264 58.4606 14.1009C58.7106 14.0724 58.8924 14.0256 59.006 13.9602C59.1225 13.8949 59.1808 13.7812 59.1808 13.6193V13.5852C59.1808 13.1648 59.0657 12.8381 58.8356 12.6051C58.6083 12.3722 58.2631 12.2557 57.8001 12.2557C57.32 12.2557 56.9435 12.3608 56.6708 12.571C56.3981 12.7812 56.2063 13.0057 56.0955 13.2443L55.141 12.9034C55.3114 12.5057 55.5387 12.196 55.8228 11.9744C56.1097 11.75 56.4222 11.5937 56.7603 11.5057C57.1012 11.4148 57.4364 11.3693 57.766 11.3693C57.9762 11.3693 58.2177 11.3949 58.4904 11.446C58.766 11.4943 59.0316 11.5952 59.2873 11.7486C59.5458 11.902 59.7603 12.1335 59.9308 12.4432C60.1012 12.7528 60.1864 13.1676 60.1864 13.6875V18H59.1808V17.1136H59.1296C59.0614 17.2557 58.9478 17.4077 58.7887 17.5696C58.6296 17.7315 58.418 17.8693 58.1538 17.983C57.8896 18.0966 57.5671 18.1534 57.1864 18.1534ZM57.3398 17.25C57.7376 17.25 58.0728 17.1719 58.3455 17.0156C58.6211 16.8594 58.8285 16.6577 58.9677 16.4105C59.1097 16.1634 59.1808 15.9034 59.1808 15.6307V14.7102C59.1381 14.7614 59.0444 14.8082 58.8995 14.8509C58.7575 14.8906 58.5927 14.9261 58.4052 14.9574C58.2205 14.9858 58.0401 15.0114 57.864 15.0341C57.6907 15.054 57.5501 15.071 57.4421 15.0852C57.1808 15.1193 56.9364 15.1747 56.7092 15.2514C56.4847 15.3253 56.3029 15.4375 56.1637 15.5881C56.0273 15.7358 55.9592 15.9375 55.9592 16.1932C55.9592 16.5426 56.0884 16.8068 56.3469 16.9858C56.6083 17.1619 56.9393 17.25 57.3398 17.25ZM64.4936 18.1364C63.9482 18.1364 63.4666 17.9986 63.049 17.723C62.6314 17.4446 62.3047 17.0526 62.0689 16.5469C61.8331 16.0384 61.7152 15.4375 61.7152 14.7443C61.7152 14.0568 61.8331 13.4602 62.0689 12.9545C62.3047 12.4489 62.6328 12.0582 63.0533 11.7827C63.4737 11.5071 63.9595 11.3693 64.5107 11.3693C64.9368 11.3693 65.2734 11.4403 65.5206 11.5824C65.7706 11.7216 65.9609 11.8807 66.0916 12.0597C66.2251 12.2358 66.3288 12.3807 66.4027 12.4943H66.4879V9.27273H67.4936V18H66.522V16.9943H66.4027C66.3288 17.1136 66.2237 17.2642 66.0874 17.446C65.951 17.625 65.7564 17.7855 65.5036 17.9276C65.2507 18.0668 64.9141 18.1364 64.4936 18.1364ZM64.63 17.233C65.0334 17.233 65.3743 17.1278 65.6527 16.9176C65.9311 16.7045 66.1428 16.4105 66.2876 16.0355C66.4325 15.6577 66.505 15.2216 66.505 14.7273C66.505 14.2386 66.4339 13.8111 66.2919 13.4446C66.1499 13.0753 65.9396 12.7884 65.6612 12.5838C65.3828 12.3764 65.0391 12.2727 64.63 12.2727C64.2038 12.2727 63.8487 12.3821 63.5646 12.6009C63.2834 12.8168 63.0717 13.1108 62.9297 13.483C62.7905 13.8523 62.7209 14.267 62.7209 14.7273C62.7209 15.1932 62.7919 15.6165 62.9339 15.9972C63.0788 16.375 63.2919 16.6761 63.5732 16.9006C63.8572 17.1222 64.2095 17.233 64.63 17.233Z" fill="white"/>
</svg>
