<?xml version="1.0" encoding="UTF-8"?><svg id="Layer_1" xmlns="http://www.w3.org/2000/svg" viewBox="0 0 18 24"><polygon points="18 6.9 18 24 0 24 0 0 11.1 0 18 6.9" style="fill:#e6e6e6;"/><g><path d="M4.541,20.4312c-.2842,0-.4844-.0664-.6001-.1982-.1162-.1318-.1743-.3042-.1743-.5161,0-.0801,.0073-.1587,.021-.2368,.0142-.0781,.0352-.1553,.063-.231,.0562-.1562,.1133-.3022,.1714-.438,.0576-.1362,.0869-.2539,.0869-.354,0-.1279-.0293-.2192-.0869-.2729-.0581-.0542-.147-.0811-.2671-.0811h-.252v-.7261h.228c.124,0,.2139-.0259,.27-.0781,.0557-.0518,.084-.1396,.084-.2642,0-.0518-.0063-.1069-.0181-.1646-.0122-.0581-.0322-.1211-.0601-.189-.0522-.1284-.104-.2661-.1562-.4141-.0518-.1479-.0776-.3003-.0776-.4561,0-.2119,.0557-.3853,.168-.519,.1118-.1343,.312-.2012,.6001-.2012h.624v.6182h-.228c-.1284,0-.2231,.0239-.2852,.0718-.062,.0483-.0933,.1284-.0933,.2402,0,.0479,.0063,.1001,.0181,.1558,.0122,.0562,.0322,.1162,.0601,.1802,.0522,.1201,.103,.2471,.1533,.3809,.0498,.1343,.0747,.269,.0747,.4053,0,.1797-.0449,.3169-.1348,.4106-.0903,.0942-.2393,.1431-.4473,.147v.0723c.208,0,.3569,.0508,.4473,.1528,.0898,.1021,.1348,.2432,.1348,.4233,0,.064-.0059,.1299-.0181,.1978-.0117,.0679-.0298,.1362-.0537,.2041-.0483,.1401-.0972,.2739-.147,.4019-.0503,.1279-.0752,.2441-.0752,.3481,0,.1118,.0298,.1919,.0898,.2397,.0601,.0483,.1543,.0723,.2822,.0723h.2222v.6182h-.624Z" style="fill:#424140;"/><path d="M6.647,19.813h.228c.1279,0,.2212-.0239,.2788-.0723,.0581-.0479,.0874-.1279,.0874-.2397,0-.0522-.0063-.1069-.0181-.165-.0122-.0581-.0303-.1191-.0542-.1831-.0479-.1279-.0972-.2607-.147-.3989s-.0752-.2729-.0752-.4048c0-.1802,.0454-.3213,.1353-.4233s.2388-.1528,.4468-.1528v-.0723c-.208-.0039-.356-.0527-.4438-.147-.0879-.0938-.1318-.231-.1318-.4106,0-.0684,.0059-.1353,.0181-.2012,.0117-.0659,.0317-.1328,.0596-.2012,.0483-.1357,.0972-.2646,.1475-.3867,.0498-.1221,.0747-.2329,.0747-.333,0-.1118-.0308-.1919-.0928-.2402-.062-.0479-.1572-.0718-.2852-.0718h-.228v-.6182h.624c.2881,0,.4878,.0669,.6001,.2012,.1118,.1338,.168,.3071,.168,.519,0,.0757-.0059,.1519-.0181,.228-.0122,.0757-.0322,.1519-.0601,.228-.0518,.1479-.104,.2871-.1558,.417-.0522,.1299-.0781,.2471-.0781,.3506,0,.1245,.0278,.2124,.084,.2642,.0562,.0522,.146,.0781,.27,.0781h.2339v.7261h-.2578c-.1201,0-.209,.0269-.2671,.0811-.0581,.0537-.0869,.145-.0869,.2729,0,.0518,.0068,.1069,.021,.165,.0137,.0581,.0347,.1211,.063,.189,.0601,.1357,.1177,.2808,.1738,.4351,.0562,.1538,.084,.3105,.084,.4707,0,.2119-.0581,.3843-.1738,.5161-.1162,.1318-.3159,.1982-.6001,.1982h-.624v-.6182Z" style="fill:#424140;"/></g></svg>