<?xml version="1.0" encoding="UTF-8"?><svg xmlns="http://www.w3.org/2000/svg" viewBox="0 0 24.7 32.88"><g id="a"/><g id="b"><g id="c"><g><path d="M23.75,8.67s-1.56,.87-6.4,1.77c-4.84,.9-5,2.95-5,2.95,0,0-.16-2.05-5-2.95-4.84-.9-6.4-1.77-6.4-1.77C-.51,15.34,.09,23.15,.31,25.39c.05,.5,.33,.96,.77,1.2,1.48,.8,4.06,.4,6.76,.19,2.4-.18,3.74,.29,4.26,.54,.16,.08,.35,.08,.51,0,.52-.25,1.86-.73,4.26-.54,2.7,.21,5.28,.61,6.76-.19,.44-.24,.72-.7,.77-1.2,.22-2.23,.82-10.04-.64-16.71Zm-14.81,7.61l-.6,.69v3.67c0,1.31-.95,2.03-2.43,2.39v-.42c.78-.32,1.18-.89,1.18-1.77v-3.87l-.6-.69v-.11h2.46v.11Zm6.1,5.73h-4.71v-.11l.6-.69v-4.22l-.61-.69v-.11h2.47v.11l-.6,.69v4.48l.11,.11h1.89l.95-1.05h.11l-.21,1.5Zm3.76-5.73l-.6,.69v4.22l.6,.69v.11h-2.46v-.11l.6-.69v-4.22l-.6-.69v-.11h2.46v.11Z"/><path d="M8.75,9.72h0c.94,.18,1.64,.41,2.15,.67,1.38,.67,1.44,1.25,1.44,1.25,0,0,.06-.58,1.44-1.25,.51-.25,1.21-.49,2.15-.66h0c.33-.06,.57-.36,.57-.69v-.47H8.17v.47c0,.34,.24,.63,.57,.69Z"/><path d="M12.02,28.46l-1.33-.53,.18,.36c.52,1.04,.78,3.09,.88,4.06,.03,.3,.29,.53,.6,.53s.56-.23,.6-.53c.1-.97,.37-3.02,.88-4.06l.18-.36-1.33,.53c-.21,.08-.45,.08-.66,0Z"/><path d="M14.6,7.32c.17-.44,2.02-2.76-.45-5.58,0,0,.26,.71-.44,1.45-.69,.74-1.19,1.11-1.26,1.66,0,0-.23-.47,.58-1.47,.81-1,.16-3.07-.64-3.38,0,0,.54,.9-.34,1.24-2.95,1.17-3.46,3.32-2,6.08h4.54Z"/></g></g></g></svg>