<?xml version="1.0" encoding="UTF-8"?><svg xmlns="http://www.w3.org/2000/svg" viewBox="0 0 18 24"><defs><style>.d{fill:#fff;}.e{fill:#c25a3b;}</style></defs><g id="a"/><g id="b"><g id="c"><g><polygon class="e" points="18 6.9 18 24 0 24 0 0 11.1 0 18 6.9"/><path class="d" d="M4.38,19.1v1.35h-.76v-4.3h1.13c.42,0,.72,.09,.91,.26s.29,.45,.29,.83v.73c0,.35-.09,.63-.28,.83-.19,.2-.49,.3-.9,.3h-.38Zm0-2.29v1.61h.34c.15,0,.27-.04,.34-.12,.07-.08,.11-.2,.11-.35v-.69c0-.16-.04-.28-.11-.35-.07-.07-.19-.1-.34-.1h-.34Z"/></g></g></g></svg>