<?xml version="1.0" encoding="UTF-8"?><svg xmlns="http://www.w3.org/2000/svg" viewBox="0 0 18 24"><defs><style>.d{fill:#fff;}.e{fill:#d73934;}</style></defs><g id="a"/><g id="b"><g id="c"><g><polygon class="e" points="18 6.9 18 24 0 24 0 0 11.1 0 18 6.9"/><g><path class="d" d="M4.38,19.13v1.35h-.76v-4.3h1.13c.42,0,.72,.09,.91,.26s.29,.45,.29,.83v.73c0,.35-.09,.63-.28,.83-.19,.2-.49,.3-.9,.3h-.38Zm0-2.29v1.61h.34c.15,0,.27-.04,.34-.12,.07-.08,.11-.2,.11-.35v-.69c0-.16-.04-.28-.11-.35-.07-.07-.19-.1-.34-.1h-.34Z"/><path class="d" d="M6.37,16.18h1.11c.12,0,.24,.01,.35,.03,.11,.02,.22,.06,.31,.1,.19,.08,.34,.22,.46,.41,.11,.19,.17,.43,.17,.74v1.75c0,.15-.01,.29-.04,.41-.03,.12-.07,.23-.13,.32-.11,.19-.26,.33-.46,.41-.2,.09-.42,.13-.67,.13h-1.1v-4.3Zm.77,.67v2.95h.3c.16,0,.29-.05,.38-.16,.09-.11,.14-.28,.14-.51v-1.62c0-.24-.05-.41-.14-.51s-.22-.16-.39-.16h-.29Z"/><path class="d" d="M10.02,18.76v1.72h-.76v-4.3h1.91v.72h-1.16v1.14h1.07v.72h-1.07Z"/></g></g></g></g></svg>