<svg width="24" height="24" viewBox="0 0 24 24" fill="none" xmlns="http://www.w3.org/2000/svg">
<g clip-path="url(#clip0_168_317)">
<path d="M13.5 2C8.212 2 3.851 5.914 3.123 11H0L4 16.917L8 11H5.153C5.864 7.028 9.327 4 13.5 4C18.187 4 22 7.813 22 12.5C22 17.187 18.187 21 13.5 21C10.485 21 7.838 19.417 6.329 17.043L5.129 18.818C7.045 21.354 10.077 23 13.5 23C19.297 23 24 18.298 24 12.5C24 6.702 19.297 2 13.5 2Z" fill="white"/>
</g>
<defs>
<clipPath id="clip0_168_317">
<rect width="24" height="24" fill="white"/>
</clipPath>
</defs>
</svg>
