<?xml version="1.0" encoding="UTF-8"?><svg xmlns="http://www.w3.org/2000/svg" viewBox="0 0 18 24"><defs><style>.d{fill:#e6e6e6;}.e{fill:#424140;}</style></defs><g id="a"/><g id="b"><g id="c"><g><polygon class="d" points="18 6.9 18 24 0 24 0 0 11.1 0 18 6.9"/><path class="e" d="M7.06,16.84v1.84c0,1.01-.82,1.82-1.82,1.82s-1.82-.81-1.82-1.82v-1.84h1v1.84c0,.46,.36,.82,.82,.82s.82-.36,.82-.82v-1.84h1Z"/><path class="e" d="M8.38,14.99v1.85h-1v-1.85c0-.45-.37-.82-.82-.82s-.82,.37-.82,.82v1.85h-1v-1.85c0-1,.81-1.82,1.82-1.82s1.82,.82,1.82,1.82Z"/></g></g></g></svg>