<svg width="26" height="24" viewBox="0 0 26 24" fill="none" xmlns="http://www.w3.org/2000/svg">
<path fill-rule="evenodd" clip-rule="evenodd" d="M16.5 23.5L6 16.5L0.5 16.3799V11.3799V6.37988H7.191L16.5 0.379883V23.5ZM7.5 8.37988V15.3889L14.5 20V3.85788L7.5 8.37988ZM21.728 3.15188C24.055 5.14088 25.5 8.09388 25.5 11.3809C25.5 14.6689 24.055 17.6219 21.73 19.6099L21.022 18.9019C23.158 17.1109 24.5 14.4009 24.5 11.3799C24.5 8.35888 23.158 5.64888 21.022 3.85788L21.728 3.15188ZM18.799 6.08088C20.32 7.33788 21.275 9.24788 21.275 11.3799C21.275 13.5119 20.32 15.4219 18.799 16.6789L18.093 15.9729C19.424 14.9099 20.275 13.2439 20.275 11.3819C20.275 9.51888 19.424 7.85288 18.091 6.78888L18.799 6.08088ZM6.5 8.37988H2.5V14.3799H6.5V8.37988Z" fill="black"/>
</svg>
